<svg xmlns="http://www.w3.org/2000/svg" xmlns:xlink="http://www.w3.org/1999/xlink" viewBox="0 0 243 516"><defs><style>.cls-1{fill:none;}.cls-2{clip-path:url(#clip-path);}.cls-3{fill:#fff;}.cls-4{fill:#ffe26a;}.cls-4,.cls-6{fill-opacity:0.4;}.cls-5,.cls-6{fill:#ffda49;}.cls-5{fill-opacity:0.5;}.cls-7{fill:#ffe992;}</style><clipPath id="clip-path" transform="translate(0)"><path class="cls-1" d="M4.74,0H238.26C240.88,0,243,3.58,243,8V508c0,4.42-2.12,8-4.74,8H4.74C2.12,516,0,512.42,0,508V8C0,3.58,2.12,0,4.74,0Z"/></clipPath></defs><g id="Слой_2" data-name="Слой 2"><g id="Слой_1-2" data-name="Слой 1"><g class="cls-2"><path class="cls-3" d="M4.74,0H238.26C240.88,0,243,3.58,243,8V508c0,4.42-2.12,8-4.74,8H4.74C2.12,516,0,512.42,0,508V8C0,3.58,2.12,0,4.74,0Z" transform="translate(0)"/><path class="cls-4" d="M114.09,96c68.75-43.2,114.59,6,128.91,36V0H0V145C9.38,146.67,45.34,139.2,114.09,96Z" transform="translate(0)"/><path class="cls-5" d="M243,95.64C129.58,118.88,33.74,60.92,0,29V0H243Z" transform="translate(0)"/><path class="cls-6" d="M100.16,31.5C159.91,20.7,220.28,53.33,243,71V0H0V87.5C8.5,73.33,40.42,42.3,100.16,31.5Z" transform="translate(0)"/><path class="cls-4" d="M128.91,437.33C60.16,472.73,14.32,432.41,0,407.83V516H243V397.17C233.62,395.81,197.66,401.93,128.91,437.33Z" transform="translate(0)"/><path class="cls-7" d="M243,437.4C129.58,418.31,33.74,465.93,0,492.13V516H243Z" transform="translate(0)"/></g></g></g></svg>