<svg width="1280" height="1283" viewBox="0 0 1280 1283" xmlns="http://www.w3.org/2000/svg" fill="none"><path d="M1280 142.498c-66.37 614-880.99 414.166-1280 237.5v903.002h1280v-1140.502z" fill="#FFF3C3"/><path d="M1156.88-.002c-356.151 956-919.649 633.333-1156.88 352.5v930.502h1279v-1283.002h-122.12z" fill="#FFE978"/><path d="M1156.88-.002c-356.151 956-919.649 633.333-1156.88 352.5v930.502h1279v-1283.002h-122.12z" fill="#FFE992"/><path d="M524.432 812.255c-329.747-63.233-487.016-353.184-524.432-490.255v961h1280v-503.262c-60.35 37.186-425.822 95.75-755.568 32.517z" fill="#FFDA49" fill-opacity=".9"/><path d="M524.432 812.255c-329.747-63.233-487.016-353.184-524.432-490.255v961h1280v-503.262c-60.35 37.186-425.822 95.75-755.568 32.517z" fill="#FFDA49"/></svg>